<svg xmlns="http://www.w3.org/2000/svg" width="5184" viewBox="0 0 5184 2592" height="2592" version="1.0"><g><g><g><path d="M 10.34375 -21.484375 L 14.324219 -4.773438 L 30.238281 -0.796875 L 100.261719 -0.796875 L 120.953125 1.589844 L 139.253906 -6.367188 L 153.578125 -20.6875 L 167.105469 -47.746094 L 180.632812 -62.863281 L 199.730469 -70.820312 L 215.644531 -69.230469 L 260.207031 -70.023438 L 276.917969 -67.636719 L 295.21875 -70.023438 L 309.542969 -70.023438 L 326.253906 -68.433594 L 363.65625 -70.023438 L 389.914062 -61.273438 L 406.625 -48.539062 L 410.601562 -34.21875 L 419.355469 -19.894531 L 432.882812 -7.160156 L 453.574219 0.796875 L 467.898438 -0.796875 L 495.746094 1.589844 L 545.082031 0 L 559.40625 -4.773438 L 562.589844 -21.484375 L 557.816406 -41.378906 L 552.246094 -55.703125 L 541.902344 -69.230469 L 537.125 -85.144531 L 529.167969 -97.082031 L 524.394531 -112.199219 L 510.867188 -140.847656 L 505.296875 -155.964844 L 497.339844 -169.492188 L 486.199219 -198.9375 L 477.445312 -211.667969 L 471.078125 -227.582031 L 463.917969 -241.109375 L 458.347656 -257.023438 L 451.1875 -268.960938 L 446.410156 -284.875 L 437.660156 -299.199219 L 431.292969 -312.726562 L 423.335938 -326.253906 L 419.355469 -341.375 L 403.441406 -369.222656 L 398.667969 -384.34375 L 384.34375 -414.582031 L 380.363281 -427.3125 L 368.429688 -455.164062 L 352.515625 -484.605469 L 339.78125 -514.84375 L 332.621094 -526.78125 L 327.847656 -541.902344 L 313.523438 -557.019531 L 286.46875 -564.179688 L 261.003906 -556.222656 L 245.882812 -541.902344 L 241.109375 -527.578125 L 206.894531 -455.960938 L 198.140625 -441.636719 L 153.578125 -341.375 L 149.601562 -327.847656 L 140.847656 -313.523438 L 128.113281 -284.875 L 116.179688 -264.1875 L 110.609375 -249.066406 L 99.46875 -228.378906 L 94.695312 -211.667969 L 87.53125 -198.9375 L 81.960938 -183.019531 L 59.679688 -141.640625 L 36.605469 -83.554688 L 27.054688 -70.820312 L 19.894531 -54.90625 Z M 256.230469 -196.546875 L 241.109375 -202.914062 L 238.722656 -218.828125 L 270.550781 -291.242188 L 277.714844 -303.972656 L 288.058594 -311.929688 L 297.609375 -305.566406 L 307.953125 -274.53125 L 316.707031 -261.003906 L 319.886719 -248.273438 L 327.847656 -232.355469 L 333.417969 -218.035156 L 331.824219 -203.710938 L 318.296875 -197.34375 Z M 256.230469 -196.546875" transform="translate(31.703 1667.124)"/></g></g></g><g><g><g><path d="M 58.886719 -24.667969 L 65.25 -7.957031 L 81.960938 -1.589844 L 97.875 0 L 144.824219 -0.796875 L 162.332031 0.796875 L 179.042969 0.796875 L 194.957031 -7.957031 L 202.117188 -24.667969 L 202.914062 -56.496094 L 201.324219 -71.617188 L 203.710938 -85.941406 L 202.117188 -103.445312 L 202.117188 -120.15625 L 207.6875 -133.683594 L 229.175781 -141.640625 L 246.679688 -144.03125 L 270.550781 -141.640625 L 311.929688 -142.4375 L 344.554688 -148.804688 L 390.710938 -162.332031 L 417.765625 -179.042969 L 430.496094 -188.589844 L 454.367188 -211.667969 L 479.832031 -249.863281 L 486.996094 -264.1875 L 492.566406 -278.511719 L 499.726562 -311.136719 L 501.316406 -325.457031 L 502.113281 -372.40625 L 487.789062 -434.476562 L 471.875 -463.121094 L 461.53125 -476.648438 L 451.1875 -487.789062 L 442.433594 -499.726562 L 428.90625 -511.664062 L 405.03125 -527.578125 L 376.386719 -542.695312 L 359.675781 -545.878906 L 343.761719 -552.246094 L 329.4375 -555.429688 L 91.511719 -556.222656 L 70.023438 -549.0625 L 62.066406 -533.941406 L 60.476562 -517.234375 L 60.476562 -484.605469 L 58.089844 -470.285156 L 58.089844 -455.164062 L 60.476562 -438.453125 L 60.476562 -357.289062 L 58.886719 -341.375 L 60.476562 -327.050781 L 58.886719 -309.542969 L 61.273438 -276.917969 L 58.089844 -255.433594 L 60.476562 -231.5625 L 58.886719 -216.441406 L 58.886719 -183.019531 L 61.273438 -167.902344 L 58.886719 -136.070312 L 61.273438 -85.941406 L 57.292969 -70.023438 L 60.476562 -54.90625 L 58.089844 -39.789062 Z M 227.582031 -271.347656 L 212.464844 -278.511719 L 202.914062 -294.425781 L 201.324219 -405.03125 L 210.871094 -422.539062 L 226.785156 -428.90625 L 246.679688 -430.496094 L 310.339844 -427.3125 L 323.867188 -420.152344 L 335.804688 -411.398438 L 348.535156 -399.460938 L 356.492188 -385.933594 L 363.65625 -348.535156 L 354.902344 -311.929688 L 336.597656 -289.648438 L 323.867188 -280.898438 L 311.136719 -273.734375 L 245.882812 -269.757812 Z M 227.582031 -271.347656" transform="translate(609.41 1667.124)"/></g></g></g><g><g><g><path d="M 58.886719 -24.667969 L 65.25 -7.957031 L 81.960938 -1.589844 L 97.875 0 L 144.824219 -0.796875 L 162.332031 0.796875 L 179.042969 0.796875 L 194.957031 -7.957031 L 202.117188 -24.667969 L 202.914062 -56.496094 L 201.324219 -71.617188 L 203.710938 -85.941406 L 202.117188 -103.445312 L 202.117188 -120.15625 L 207.6875 -133.683594 L 229.175781 -141.640625 L 246.679688 -144.03125 L 270.550781 -141.640625 L 311.929688 -142.4375 L 344.554688 -148.804688 L 390.710938 -162.332031 L 417.765625 -179.042969 L 430.496094 -188.589844 L 454.367188 -211.667969 L 479.832031 -249.863281 L 486.996094 -264.1875 L 492.566406 -278.511719 L 499.726562 -311.136719 L 501.316406 -325.457031 L 502.113281 -372.40625 L 487.789062 -434.476562 L 471.875 -463.121094 L 461.53125 -476.648438 L 451.1875 -487.789062 L 442.433594 -499.726562 L 428.90625 -511.664062 L 405.03125 -527.578125 L 376.386719 -542.695312 L 359.675781 -545.878906 L 343.761719 -552.246094 L 329.4375 -555.429688 L 91.511719 -556.222656 L 70.023438 -549.0625 L 62.066406 -533.941406 L 60.476562 -517.234375 L 60.476562 -484.605469 L 58.089844 -470.285156 L 58.089844 -455.164062 L 60.476562 -438.453125 L 60.476562 -357.289062 L 58.886719 -341.375 L 60.476562 -327.050781 L 58.886719 -309.542969 L 61.273438 -276.917969 L 58.089844 -255.433594 L 60.476562 -231.5625 L 58.886719 -216.441406 L 58.886719 -183.019531 L 61.273438 -167.902344 L 58.886719 -136.070312 L 61.273438 -85.941406 L 57.292969 -70.023438 L 60.476562 -54.90625 L 58.089844 -39.789062 Z M 227.582031 -271.347656 L 212.464844 -278.511719 L 202.914062 -294.425781 L 201.324219 -405.03125 L 210.871094 -422.539062 L 226.785156 -428.90625 L 246.679688 -430.496094 L 310.339844 -427.3125 L 323.867188 -420.152344 L 335.804688 -411.398438 L 348.535156 -399.460938 L 356.492188 -385.933594 L 363.65625 -348.535156 L 354.902344 -311.929688 L 336.597656 -289.648438 L 323.867188 -280.898438 L 311.136719 -273.734375 L 245.882812 -269.757812 Z M 227.582031 -271.347656" transform="translate(1133.008 1667.124)"/></g></g></g><g><g><g><path d="M 297.609375 9.550781 L 342.167969 8.753906 L 389.914062 2.386719 L 449.59375 -17.507812 L 475.855469 -31.828125 L 487.789062 -41.378906 L 502.910156 -48.539062 L 525.191406 -67.636719 L 535.535156 -81.960938 L 546.675781 -93.101562 L 581.6875 -146.417969 L 593.625 -176.65625 L 599.988281 -206.894531 L 600.785156 -221.214844 L 604.765625 -237.132812 L 605.558594 -253.84375 L 608.742188 -276.917969 L 606.355469 -316.707031 L 600.785156 -349.332031 L 580.890625 -409.011719 L 565.773438 -438.453125 L 548.265625 -462.328125 L 525.984375 -486.996094 L 502.910156 -506.886719 L 484.605469 -519.621094 L 460.734375 -529.964844 L 448.800781 -538.71875 L 387.527344 -557.816406 L 341.375 -565.773438 L 319.886719 -566.570312 L 235.539062 -554.632812 L 175.859375 -532.351562 L 163.921875 -523.597656 L 149.601562 -516.4375 L 122.542969 -496.542969 L 83.554688 -451.1875 L 58.886719 -409.011719 L 46.949219 -378.773438 L 33.421875 -317.5 L 31.035156 -253.046875 L 33.421875 -236.335938 L 37.398438 -222.011719 L 38.992188 -206.894531 L 46.152344 -176.65625 L 82.757812 -104.242188 L 92.304688 -94.695312 L 102.652344 -81.960938 L 114.585938 -70.820312 L 123.339844 -60.476562 L 149.601562 -39.789062 L 211.667969 -7.957031 L 234.742188 0 L 252.25 1.589844 L 280.898438 7.957031 Z M 342.167969 -131.296875 L 298.402344 -131.296875 L 280.898438 -133.683594 L 252.25 -145.621094 L 239.519531 -152.78125 L 218.035156 -170.289062 L 207.6875 -181.429688 L 196.546875 -196.546875 L 192.570312 -209.28125 L 185.40625 -223.605469 L 179.042969 -253.046875 L 179.042969 -301.585938 L 183.019531 -315.910156 L 185.40625 -331.027344 L 191.773438 -345.351562 L 196.546875 -359.675781 L 215.644531 -385.140625 L 255.433594 -412.195312 L 265.777344 -416.171875 L 296.8125 -424.128906 L 319.09375 -425.722656 L 357.289062 -420.949219 L 371.613281 -417.765625 L 385.933594 -411.398438 L 410.601562 -393.894531 L 441.636719 -361.265625 L 451.1875 -331.027344 L 458.347656 -315.910156 L 460.734375 -301.585938 L 459.144531 -253.046875 L 452.777344 -223.605469 L 447.207031 -209.28125 L 438.453125 -194.957031 L 433.679688 -183.019531 L 422.539062 -170.289062 L 384.34375 -144.03125 L 370.019531 -140.050781 L 358.085938 -134.480469 Z M 342.167969 -131.296875" transform="translate(1656.606 1667.124)"/></g></g></g><g><g><g><path d="M 38.195312 -23.078125 L 46.152344 -6.367188 L 62.066406 -0.796875 L 298.402344 0.796875 L 313.523438 -7.160156 L 322.277344 -21.484375 L 322.277344 -38.992188 L 320.683594 -53.316406 L 323.070312 -101.855469 L 311.929688 -115.382812 L 258.617188 -132.09375 L 249.863281 -148.007812 L 251.453125 -213.257812 L 248.273438 -245.089844 L 251.453125 -278.511719 L 249.863281 -302.382812 L 251.453125 -327.050781 L 249.863281 -342.167969 L 251.453125 -358.085938 L 249.863281 -374.792969 L 249.863281 -408.214844 L 258.617188 -422.539062 L 273.734375 -431.292969 L 291.242188 -432.089844 L 306.359375 -440.839844 L 315.113281 -455.960938 L 315.113281 -502.910156 L 316.707031 -517.234375 L 315.113281 -533.148438 L 308.75 -549.0625 L 283.285156 -556.222656 L 182.226562 -557.019531 L 164.71875 -555.429688 L 116.179688 -556.222656 L 101.058594 -555.429688 L 70.023438 -557.019531 L 52.519531 -549.0625 L 43.765625 -532.351562 L 43.765625 -517.234375 L 42.175781 -503.707031 L 42.175781 -486.199219 L 43.765625 -470.285156 L 43.765625 -455.164062 L 51.722656 -440.046875 L 100.261719 -423.335938 L 110.609375 -409.011719 L 108.222656 -341.375 L 109.015625 -327.847656 L 111.402344 -309.542969 L 110.609375 -276.917969 L 109.015625 -261.003906 L 112.199219 -229.96875 L 108.222656 -214.054688 L 111.402344 -179.835938 L 109.8125 -148.804688 L 101.855469 -131.296875 L 49.335938 -114.585938 L 39.789062 -99.46875 L 38.195312 -84.347656 Z M 38.195312 -23.078125" transform="translate(2294.79 1667.124)"/></g></g></g><g><g><g><path d="M 469.488281 -12.730469 L 492.566406 -2.386719 L 513.253906 3.980469 L 531.554688 -4.773438 L 538.71875 -21.484375 L 542.695312 -237.925781 L 539.511719 -260.207031 L 541.105469 -277.714844 L 537.921875 -373.203125 L 540.308594 -405.03125 L 538.71875 -420.152344 L 538.71875 -451.980469 L 541.902344 -467.898438 L 540.308594 -491.769531 L 541.902344 -533.148438 L 532.351562 -547.472656 L 514.84375 -555.429688 L 498.929688 -557.019531 L 483.8125 -557.019531 L 466.304688 -555.429688 L 449.59375 -557.816406 L 435.269531 -556.222656 L 419.355469 -557.019531 L 400.257812 -549.0625 L 392.300781 -532.351562 L 391.503906 -387.527344 L 394.6875 -370.816406 L 394.6875 -355.695312 L 391.503906 -338.988281 L 392.300781 -307.15625 L 388.324219 -294.425781 L 377.183594 -297.609375 L 342.167969 -333.417969 L 330.234375 -342.964844 L 302.382812 -371.613281 L 289.648438 -381.160156 L 280.898438 -392.300781 L 264.1875 -409.808594 L 239.519531 -430.496094 L 230.765625 -442.433594 L 215.644531 -452.777344 L 207.6875 -464.714844 L 194.160156 -474.261719 L 183.816406 -487.789062 L 140.847656 -531.554688 L 109.015625 -553.042969 L 87.53125 -559.40625 L 68.433594 -549.859375 L 58.089844 -534.738281 L 59.679688 -423.335938 L 58.089844 -407.421875 L 60.476562 -374.792969 L 58.886719 -360.472656 L 59.679688 -343.761719 L 57.292969 -327.050781 L 60.476562 -213.257812 L 58.886719 -198.9375 L 58.886719 -183.816406 L 57.292969 -166.308594 L 57.292969 -151.191406 L 59.679688 -134.480469 L 58.886719 -101.855469 L 60.476562 -85.941406 L 58.089844 -55.703125 L 60.476562 -39.789062 L 60.476562 -24.667969 L 67.636719 -7.160156 L 82.757812 1.589844 L 109.8125 0 L 149.601562 2.386719 L 166.308594 0 L 184.613281 1.589844 L 200.527344 -6.367188 L 207.6875 -22.28125 L 205.300781 -38.195312 L 207.6875 -233.152344 L 204.503906 -249.863281 L 212.464844 -259.410156 L 222.808594 -257.023438 L 336.597656 -145.621094 L 349.332031 -135.277344 L 426.519531 -58.089844 L 436.863281 -45.355469 L 449.59375 -35.011719 L 459.144531 -23.078125 Z M 469.488281 -12.730469" transform="translate(2656.057 1667.124)"/></g></g></g><g><g><g><path d="M 152.78125 -24.667969 L 159.148438 -7.957031 L 175.859375 0 L 190.976562 -1.589844 L 206.894531 0 L 222.011719 -1.589844 L 271.347656 -1.589844 L 287.261719 -7.957031 L 293.628906 -23.871094 L 292.832031 -38.992188 L 294.425781 -57.292969 L 293.628906 -89.125 L 291.242188 -102.652344 L 293.628906 -119.363281 L 295.21875 -167.902344 L 293.628906 -182.226562 L 296.015625 -215.644531 L 292.832031 -374 L 295.21875 -389.914062 L 293.628906 -407.421875 L 299.996094 -421.742188 L 317.5 -428.90625 L 331.027344 -429.699219 L 346.945312 -428.90625 L 361.265625 -430.496094 L 405.03125 -429.699219 L 423.335938 -436.863281 L 431.292969 -452.777344 L 429.699219 -469.488281 L 431.292969 -534.738281 L 423.335938 -550.652344 L 407.421875 -558.609375 L 388.324219 -557.019531 L 375.589844 -558.609375 L 360.472656 -558.609375 L 342.964844 -556.222656 L 327.050781 -556.222656 L 311.136719 -557.816406 L 295.21875 -557.816406 L 276.917969 -555.429688 L 39.789062 -557.019531 L 22.28125 -549.0625 L 14.324219 -533.148438 L 13.527344 -453.574219 L 22.28125 -436.066406 L 38.195312 -428.109375 L 58.886719 -430.496094 L 129.707031 -429.699219 L 144.03125 -420.949219 L 151.988281 -405.828125 L 154.375 -318.296875 L 151.988281 -293.628906 L 153.578125 -278.511719 L 151.988281 -262.59375 L 151.988281 -230.765625 L 154.375 -207.6875 L 151.191406 -183.816406 L 151.988281 -167.902344 L 151.191406 -151.191406 L 153.578125 -102.652344 L 151.988281 -86.734375 Z M 152.78125 -24.667969" transform="translate(3256.046 1667.124)"/></g></g></g><g><g><g><path d="M 38.195312 -23.078125 L 46.152344 -6.367188 L 62.066406 -0.796875 L 298.402344 0.796875 L 313.523438 -7.160156 L 322.277344 -21.484375 L 322.277344 -38.992188 L 320.683594 -53.316406 L 323.070312 -101.855469 L 311.929688 -115.382812 L 258.617188 -132.09375 L 249.863281 -148.007812 L 251.453125 -213.257812 L 248.273438 -245.089844 L 251.453125 -278.511719 L 249.863281 -302.382812 L 251.453125 -327.050781 L 249.863281 -342.167969 L 251.453125 -358.085938 L 249.863281 -374.792969 L 249.863281 -408.214844 L 258.617188 -422.539062 L 273.734375 -431.292969 L 291.242188 -432.089844 L 306.359375 -440.839844 L 315.113281 -455.960938 L 315.113281 -502.910156 L 316.707031 -517.234375 L 315.113281 -533.148438 L 308.75 -549.0625 L 283.285156 -556.222656 L 182.226562 -557.019531 L 164.71875 -555.429688 L 116.179688 -556.222656 L 101.058594 -555.429688 L 70.023438 -557.019531 L 52.519531 -549.0625 L 43.765625 -532.351562 L 43.765625 -517.234375 L 42.175781 -503.707031 L 42.175781 -486.199219 L 43.765625 -470.285156 L 43.765625 -455.164062 L 51.722656 -440.046875 L 100.261719 -423.335938 L 110.609375 -409.011719 L 108.222656 -341.375 L 109.015625 -327.847656 L 111.402344 -309.542969 L 110.609375 -276.917969 L 109.015625 -261.003906 L 112.199219 -229.96875 L 108.222656 -214.054688 L 111.402344 -179.835938 L 109.8125 -148.804688 L 101.855469 -131.296875 L 49.335938 -114.585938 L 39.789062 -99.46875 L 38.195312 -84.347656 Z M 38.195312 -23.078125" transform="translate(3700.865 1667.124)"/></g></g></g><g><g><g><path d="M 230.765625 6.367188 L 253.84375 8.753906 L 279.304688 7.957031 L 357.289062 -7.160156 L 398.667969 -29.441406 L 424.128906 -46.949219 L 446.410156 -72.414062 L 462.328125 -97.875 L 468.691406 -112.199219 L 473.46875 -128.113281 L 475.855469 -142.4375 L 476.648438 -191.773438 L 474.261719 -207.6875 L 470.285156 -222.808594 L 454.367188 -252.25 L 435.269531 -276.917969 L 421.742188 -288.058594 L 379.570312 -307.15625 L 314.316406 -323.070312 L 233.949219 -333.417969 L 200.527344 -345.351562 L 188.589844 -351.71875 L 175.859375 -364.449219 L 175.0625 -385.933594 L 177.449219 -406.625 L 186.203125 -417.765625 L 199.730469 -428.109375 L 210.871094 -432.882812 L 225.195312 -436.066406 L 276.121094 -437.660156 L 293.628906 -431.292969 L 305.566406 -421.742188 L 331.824219 -393.894531 L 356.492188 -385.933594 L 409.011719 -384.34375 L 423.335938 -385.933594 L 438.453125 -384.34375 L 453.574219 -393.894531 L 460.734375 -409.011719 L 454.367188 -440.046875 L 441.636719 -468.691406 L 431.292969 -481.425781 L 423.335938 -494.15625 L 412.992188 -506.09375 L 362.0625 -541.105469 L 318.296875 -556.222656 L 301.585938 -559.40625 L 287.261719 -561 L 269.757812 -564.976562 L 225.195312 -564.179688 L 162.332031 -551.449219 L 148.007812 -545.878906 L 135.277344 -537.921875 L 122.542969 -533.148438 L 106.628906 -523.597656 L 95.488281 -513.253906 L 81.164062 -503.707031 L 72.414062 -490.175781 L 62.066406 -479.832031 L 56.496094 -465.507812 L 48.539062 -452.777344 L 37.398438 -406.625 L 38.195312 -353.308594 L 43.765625 -331.027344 L 54.109375 -303.179688 L 74.003906 -276.917969 L 96.285156 -256.230469 L 124.136719 -239.519531 L 169.492188 -224.398438 L 198.140625 -218.035156 L 263.390625 -213.257812 L 277.714844 -210.871094 L 293.628906 -210.074219 L 322.277344 -198.140625 L 333.417969 -188.589844 L 337.394531 -167.902344 L 332.621094 -147.210938 L 319.886719 -136.070312 L 307.15625 -128.910156 L 277.714844 -120.15625 L 255.433594 -119.363281 L 231.5625 -120.953125 L 213.257812 -125.726562 L 201.324219 -131.296875 L 187 -140.050781 L 175.0625 -151.191406 L 163.128906 -167.105469 L 147.210938 -173.472656 L 86.734375 -175.0625 L 70.820312 -173.472656 L 54.90625 -174.269531 L 38.992188 -167.105469 L 33.421875 -150.394531 L 35.011719 -132.890625 L 38.195312 -118.566406 L 50.925781 -86.734375 L 70.820312 -62.066406 L 93.898438 -38.992188 L 107.425781 -30.238281 L 164.71875 -3.980469 L 182.226562 -1.589844 L 197.34375 3.980469 Z M 230.765625 6.367188" transform="translate(4062.132 1667.124)"/></g></g></g><g><g><g><path d="M 60.476562 -22.28125 L 66.84375 -5.570312 L 85.144531 1.589844 L 100.261719 1.589844 L 124.929688 -0.796875 L 148.007812 0 L 164.71875 2.386719 L 181.429688 0.796875 L 198.9375 -6.367188 L 205.300781 -22.28125 L 206.097656 -38.195312 L 203.710938 -55.703125 L 205.300781 -70.023438 L 203.710938 -85.941406 L 205.300781 -101.058594 L 204.503906 -118.566406 L 206.097656 -135.277344 L 203.710938 -198.140625 L 211.667969 -214.851562 L 227.582031 -224.398438 L 244.292969 -224.398438 L 258.617188 -222.808594 L 305.566406 -222.808594 L 321.480469 -224.398438 L 337.394531 -222.808594 L 352.515625 -222.808594 L 366.835938 -214.851562 L 374.792969 -198.9375 L 377.183594 -150.394531 L 374.792969 -135.277344 L 377.976562 -78.777344 L 374.792969 -54.90625 L 377.183594 -23.871094 L 385.140625 -7.160156 L 401.054688 0.796875 L 416.96875 -0.796875 L 440.839844 1.589844 L 495.746094 1.589844 L 511.664062 -7.160156 L 520.414062 -22.28125 L 523.597656 -54.90625 L 523.597656 -183.019531 L 520.414062 -213.257812 L 521.210938 -229.175781 L 519.621094 -245.882812 L 519.621094 -261.800781 L 522.007812 -278.511719 L 521.210938 -308.75 L 522.804688 -326.253906 L 520.414062 -404.238281 L 524.394531 -470.285156 L 521.210938 -485.402344 L 519.621094 -500.523438 L 522.804688 -516.4375 L 521.210938 -532.351562 L 513.253906 -548.265625 L 488.585938 -556.222656 L 448.003906 -557.019531 L 422.539062 -554.632812 L 406.625 -554.632812 L 382.753906 -547.472656 L 376.386719 -524.394531 L 377.976562 -437.660156 L 374.792969 -424.128906 L 374.792969 -377.976562 L 366.042969 -362.0625 L 352.515625 -354.105469 L 320.683594 -354.105469 L 306.359375 -355.695312 L 229.175781 -354.902344 L 212.464844 -362.0625 L 206.097656 -377.183594 L 206.097656 -424.925781 L 207.6875 -439.25 L 205.300781 -518.027344 L 206.097656 -531.554688 L 196.546875 -548.265625 L 171.878906 -556.222656 L 124.929688 -554.632812 L 109.015625 -556.222656 L 93.898438 -554.632812 L 69.230469 -547.472656 L 60.476562 -533.941406 L 58.089844 -516.4375 L 58.089844 -501.316406 L 59.679688 -483.8125 L 57.292969 -468.691406 L 61.273438 -420.949219 L 58.886719 -403.441406 L 60.476562 -389.914062 L 57.292969 -374 L 60.476562 -325.457031 L 58.886719 -308.75 L 58.886719 -262.59375 L 61.273438 -247.476562 L 59.679688 -222.808594 L 61.273438 -204.503906 L 58.886719 -167.105469 L 60.476562 -149.601562 L 58.089844 -133.683594 L 60.476562 -119.363281 L 58.886719 -103.445312 Z M 60.476562 -22.28125" transform="translate(4569.815 1667.124)"/></g></g></g></svg>